<?xml version="1.0" standalone="no"?>
<!DOCTYPE svg PUBLIC "-//W3C//DTD SVG 20010904//EN"
 "http://www.w3.org/TR/2001/REC-SVG-20010904/DTD/svg10.dtd">
<svg version="1.0" xmlns="http://www.w3.org/2000/svg"
 width="1024.000000pt" height="1024.000000pt" viewBox="0 0 1024.000000 1024.000000"
 preserveAspectRatio="xMidYMid meet">
<metadata>
Created by potrace 1.14, written by Peter Selinger 2001-2017
</metadata>
<g transform="translate(0.000000,1024.000000) scale(0.100000,-0.100000)"
fill="#000000" stroke="none">
<path d="M2940 8320 c0 -3 -1 -1266 -2 -2807 l-3 -2802 918 -1 919 0 -8 582
c-4 321 -3 671 1 779 l7 197 50 -57 c28 -31 94 -101 147 -156 54 -55 153 -163
222 -240 68 -76 162 -180 209 -230 98 -103 192 -210 300 -344 101 -125 208
-226 320 -301 125 -84 338 -187 426 -205 56 -12 196 -15 707 -17 l637 -3 0
1029 0 1029 -37 -7 c-21 -3 -234 -9 -474 -13 l-436 -6 -33 49 c-19 27 -50 69
-69 93 -24 29 -32 46 -23 49 42 14 236 120 282 155 162 121 379 333 432 423
10 16 38 56 63 89 93 124 238 453 270 610 35 180 36 571 0 761 -42 223 -157
482 -303 678 -232 313 -541 518 -925 615 -225 57 -144 54 -1934 55 -915 1
-1663 -1 -1663 -4z m3375 -553 c264 -58 512 -208 663 -401 116 -146 168 -262
217 -478 30 -130 35 -170 35 -277 0 -158 -20 -291 -61 -406 -48 -137 -101
-230 -206 -360 -96 -119 -337 -302 -511 -389 -182 -92 -511 -150 -711 -127
-57 7 -105 11 -107 9 -8 -9 213 -281 345 -423 125 -134 353 -392 573 -648 l50
-58 157 5 c86 3 224 9 306 12 l151 6 3 -321 2 -321 -238 0 c-259 0 -375 10
-498 40 -104 26 -243 95 -344 170 -86 64 -548 521 -635 630 -29 36 -90 106
-136 155 -45 50 -124 140 -175 200 -50 61 -113 129 -139 153 -70 65 -238 280
-305 389 -5 10 -78 15 -280 20 l-272 6 1 -869 c1 -478 1 -875 1 -881 -1 -10
-85 -13 -361 -15 l-359 -3 0 2095 1 2095 806 -1 c444 -1 884 2 977 6 286 13
968 5 1050 -13z"/>
<path d="M5795 7139 c-289 -23 -477 -29 -983 -29 -369 0 -570 4 -583 10 -19
10 -19 3 -21 -377 -5 -678 -2 -792 17 -813 9 -10 26 -17 37 -15 15 3 18 0 14
-12 -6 -14 -3 -14 19 1 24 16 51 14 41 -2 -6 -10 67 -8 82 2 7 4 12 3 12 -2 0
-5 14 -8 30 -7 17 1 30 -2 30 -6 0 -5 7 -6 15 -3 9 4 15 1 15 -7 0 -8 6 -5 16
7 15 18 15 18 10 0 -5 -15 -4 -17 7 -8 8 7 17 9 20 5 4 -3 14 0 23 8 14 11 71
14 288 14 149 0 312 -4 361 -8 136 -13 329 -12 430 2 50 7 134 19 188 27 102
14 214 48 307 92 105 51 292 265 301 344 0 4 5 22 10 40 23 78 4 252 -37 347
-35 79 -104 171 -186 245 -139 127 -249 162 -463 145z m-143 -500 c93 -6 165
-16 184 -25 46 -22 68 -70 60 -126 l-7 -46 -77 -7 c-192 -16 -423 -21 -612
-14 -113 5 -258 10 -322 11 l-118 3 0 27 c0 15 5 62 11 104 l12 77 66 -5 c36
-3 107 -2 156 2 146 11 482 11 647 -1z"/>
<path d="M7551 8050 c0 -14 4 -32 9 -40 8 -12 10 -12 9 5 0 11 -4 29 -9 40 -8
18 -9 18 -9 -5z"/>
<path d="M7682 5529 c-47 -23 -95 -85 -106 -136 -17 -74 55 -185 129 -199 66
-12 157 50 190 130 29 69 5 129 -73 186 -54 40 -89 44 -140 19z"/>
</g>
</svg>
