<svg xmlns="http://www.w3.org/2000/svg" viewBox="0 2 125.94999694824219 75.3499984741211" data-asc="0.966" width="125.94999694824219" height="75.3499984741211"><defs/><g fill="#f2f2f2"><g transform="translate(0, 0)"><path d="M33.80 10.85Q33.80 12.00 32.55 14.15Q31.30 16.30 28.75 19.50Q26.20 22.70 24 25.32Q21.80 27.95 18.27 32.05Q14.75 36.15 13.10 38.10Q9.85 41.95 6.95 44.88Q4.05 47.80 2.75 48.80L1.50 49.80Q1.05 50.20 0.60 50.20Q0 50.20 0 49.25Q0 45.55 2.40 36.20Q3.90 30.35 6.00 24.57Q8.10 18.80 9.45 16.00L10.80 13.15Q11.55 11.65 12.82 10.75Q14.10 9.85 15 9.85Q15.70 9.85 15.70 10.35Q15.70 10.45 15.60 10.75Q14.80 12.75 13.53 16.10Q12.25 19.45 9.70 27.67Q7.15 35.90 6.25 41.60Q6.30 42.40 6.75 42.40Q7.00 42.40 7.45 41.95Q11.60 38 17.10 30.85Q26.50 18.55 27.50 12.55Q27.50 11.15 29.18 10.45Q30.85 9.75 32.35 9.75Q33.80 9.75 33.80 10.85ZM24.25 43.45Q18.40 48.95 16.75 48.95Q15.90 48.95 15.90 47.80Q15.90 46.65 16.80 44.45Q17.70 42.25 18.60 40.60L19.50 39Q23.30 32.35 25.25 29.45Q26.10 28.20 27.43 27.32Q28.75 26.45 29.90 26.45Q30.30 26.45 30.30 26.80Q30.30 27.05 29.95 27.75Q29.35 28.85 27 33Q24.65 37.15 24.20 38Q22.15 41.60 22.15 42.80Q22.15 43.25 22.45 43.25Q22.95 43.25 25.65 40.75Q27.75 38.65 31.20 34.70Q31.35 34.55 31.45 34.55Q31.55 34.55 31.55 34.75Q31.55 35.70 30.80 36.60Q27.10 40.70 24.25 43.45M30.90 23.60Q29.65 23.60 29.65 22.10Q29.65 20.70 30.70 19.27Q31.75 17.85 33 17.85Q34.50 17.85 34.50 19.55Q34.50 20.95 33.35 22.27Q32.20 23.60 30.90 23.60ZM43.20 43.45Q37.35 48.95 35.50 48.95Q34.65 48.95 34.65 48.05Q34.65 47.50 34.90 46.67Q35.15 45.85 35.53 45.02Q35.90 44.20 36.25 43.50Q36.60 42.80 36.95 42.20Q37.30 41.60 37.30 41.55Q38.05 40.20 39.55 37.77Q41.05 35.35 41.95 33.77Q42.85 32.20 42.85 31.85Q42.85 31.60 42.60 31.60L41.90 31.85Q39.60 33.50 36.40 36.97Q33.20 40.45 31.15 43.10L29.10 45.70Q28.45 46.65 27.95 47.25Q27.45 47.85 26.53 48.42Q25.60 49 24.65 49Q23.95 49 23.95 48.60Q23.95 48.20 24.90 46.27Q25.85 44.35 26.80 42.60L27.75 40.90L32.65 32.30Q33.40 31.05 33.88 30.37Q34.35 29.70 35.20 28.67Q36.05 27.65 37.03 27.15Q38 26.65 39.10 26.55Q39.50 26.55 39.50 26.90Q39.50 27.20 39.35 27.40Q38.20 29.20 35.83 33.35Q33.45 37.50 32.80 38.75Q32.65 39.05 32.65 39.20Q32.65 39.30 32.75 39.30Q32.85 39.30 33.25 39Q34.20 37.90 35.73 36.25Q37.25 34.60 40.90 31.27Q44.55 27.95 46.90 26.80Q47.45 26.55 47.95 26.55Q48.65 26.55 48.65 27.35Q48.25 29.70 44.80 35.40Q41 41.65 41 42.80Q41 43.20 41.35 43.20Q41.60 43.20 41.93 43.02Q42.25 42.85 42.65 42.52Q43.05 42.20 43.33 41.95Q43.60 41.70 44.05 41.27Q44.50 40.85 44.60 40.75Q46.70 38.65 50.15 34.70Q50.30 34.55 50.40 34.55Q50.50 34.55 50.50 34.75Q50.50 35.70 49.75 36.60Q46.05 40.70 43.20 43.45ZM59.95 45.15Q55.80 48.95 54.25 48.95Q53.55 48.95 53.55 48.15Q53.55 47.15 54.43 45.10Q55.30 43.05 56.20 41.50L57.10 39.95Q57.30 39.60 57.30 39.50Q57.30 39.40 57.20 39.40Q57.00 39.40 56.45 39.95Q54.95 41.60 53.03 43.47Q51.10 45.35 49.90 46.40L48.75 47.40Q46.80 48.90 45.75 48.90Q44.65 48.90 44.65 47.20Q44.65 46.35 45.13 44.60Q45.60 42.85 45.85 42.25Q47.00 39.45 48.73 36.80Q50.45 34.15 52.80 31.72Q55.15 29.30 58.28 27.80Q61.40 26.30 64.75 26.30Q67.55 26.30 67.55 27.15Q67.55 27.65 66.30 27.65Q61.70 27.65 57.68 31.57Q53.65 35.50 51.15 40.60Q50.45 42 50.45 42.95Q50.45 43.50 50.80 43.50Q51.40 43.50 52.35 42.65Q52.95 42.10 53.98 41.20Q55.00 40.30 57.30 37.75Q59.60 35.20 60.95 33Q61.15 32.60 61.58 32.05Q62.00 31.50 63.20 30.57Q64.40 29.65 65.60 29.65Q66.25 29.65 66.25 30.00Q66.25 30.10 66.10 30.35Q65.90 30.75 64.98 32.35Q64.05 33.95 63.25 35.38Q62.45 36.80 61.55 38.47Q60.65 40.15 60.13 41.35Q59.60 42.55 59.60 42.95Q59.60 43.25 59.85 43.25Q60.60 43.25 63.50 40.35Q65.70 38.05 68.65 34.70Q68.80 34.55 68.90 34.55Q69 34.55 69 34.75Q69 35.70 68.25 36.60Q63.35 42.05 59.95 45.15ZM74.65 41.20L76.75 37.10Q76.75 36.95 76.65 36.95Q76.55 36.95 76.40 37.10Q74.55 39.25 72.50 41.32Q70.45 43.40 69.35 44.40L68.25 45.40Q64.50 48.95 62.95 48.95Q62.25 48.95 62.25 48.05Q62.25 47.05 63.05 45.02Q63.85 43 64.65 41.50L65.45 39.95Q69.65 32.10 71.65 29.45Q72.65 28.15 74.10 27.27Q75.55 26.40 76.35 26.40Q76.85 26.40 76.85 26.75Q76.85 26.95 76.65 27.30Q76.55 27.50 74.60 30.62Q72.65 33.75 71.45 36Q68.15 42.05 68.15 42.95Q68.15 43.30 68.45 43.30Q68.90 43.30 70 42.40Q73.25 39.60 77.15 34.85Q79.30 32.55 81.65 28.85Q82.30 27.85 83.58 27.12Q84.85 26.40 85.90 26.40Q86.35 26.40 86.35 26.80L85.95 27.75Q85.25 29.00 82.83 33.22Q80.40 37.45 80.10 38Q79.70 38.75 78.28 41.22Q76.85 43.70 76.25 44.75Q79.40 42.20 81.45 40.35Q83.65 38.05 86.60 34.70Q86.75 34.55 86.85 34.55Q86.95 34.55 86.95 34.75Q86.95 35.70 86.20 36.60Q84 39 82.40 40.70Q80.30 42.90 74.90 47.10L73.60 49.50Q63.95 67.25 60.30 72.60Q59.95 73.15 59.40 73.92Q58.85 74.70 57.60 76.03Q56.35 77.35 55.60 77.35Q54.40 77.35 54.40 73.90Q54.40 68.80 58.05 62.80Q62.00 56.35 70.25 49.55Q71.90 46.55 74.65 41.20M59.30 62.70Q58.90 63.30 58.35 64.28Q57.80 65.25 56.85 67.63Q55.90 70 55.90 71.60Q55.90 72.45 56.20 72.45Q56.45 72.45 56.95 71.97Q57.45 71.50 57.80 71L58.15 70.50Q63.10 62.75 68.90 52Q62.40 57.70 59.30 62.70ZM96.40 45.15Q92.25 48.95 90.70 48.95Q90.00 48.95 90.00 48.15Q90.00 47.15 90.88 45.10Q91.75 43.05 92.65 41.50L93.55 39.95Q93.75 39.60 93.75 39.50Q93.75 39.40 93.65 39.40Q93.45 39.40 92.90 39.95Q91.40 41.60 89.48 43.47Q87.55 45.35 86.35 46.40L85.20 47.40Q83.25 48.90 82.20 48.90Q81.10 48.90 81.10 47.20Q81.10 46.35 81.58 44.60Q82.05 42.85 82.30 42.25Q83.45 39.45 85.18 36.80Q86.90 34.15 89.25 31.72Q91.60 29.30 94.73 27.80Q97.85 26.30 101.20 26.30Q104.00 26.30 104.00 27.15Q104.00 27.65 102.75 27.65Q98.15 27.65 94.13 31.57Q90.10 35.50 87.60 40.60Q86.90 42 86.90 42.95Q86.90 43.50 87.25 43.50Q87.85 43.50 88.80 42.65Q89.40 42.10 90.43 41.20Q91.45 40.30 93.75 37.75Q96.05 35.20 97.40 33Q97.60 32.60 98.03 32.05Q98.45 31.50 99.65 30.57Q100.85 29.65 102.05 29.65Q102.70 29.65 102.70 30.00Q102.70 30.10 102.55 30.35Q102.35 30.75 101.43 32.35Q100.50 33.95 99.70 35.38Q98.90 36.80 98.00 38.47Q97.10 40.15 96.58 41.35Q96.05 42.55 96.05 42.95Q96.05 43.25 96.30 43.25Q97.05 43.25 99.95 40.35Q102.15 38.05 105.10 34.70Q105.25 34.55 105.35 34.55Q105.45 34.55 105.45 34.75Q105.45 35.70 104.70 36.60Q99.80 42.05 96.40 45.15ZM117.60 40.75Q119.70 38.65 123.15 34.70Q123.30 34.55 123.40 34.55Q123.50 34.55 123.50 34.75Q123.50 35.70 122.75 36.60Q119.05 40.70 116.20 43.45Q115.95 43.70 115.28 44.38Q114.60 45.05 114.20 45.42Q113.80 45.80 113.15 46.42Q112.50 47.05 112.05 47.40Q111.60 47.75 111.08 48.13Q110.55 48.50 110.13 48.67Q109.70 48.85 109.40 48.85Q108.50 48.85 108.50 47.20Q108.50 45.40 109.28 42.60Q110.05 39.80 110.85 37.90L111.60 36Q111.65 35.90 111.65 35.80Q111.65 35.70 111.55 35.70L111.25 35.80Q109.35 37.70 107.33 40.07Q105.30 42.45 104.25 43.85L103.20 45.25Q102.20 46.80 100.88 47.95Q99.55 49.10 98.85 49.10Q98.35 49.10 98.35 48.45Q98.35 47.50 99.25 45.45Q100.15 43.40 101.05 41.80L101.95 40.20L109.25 27.15Q119.10 9.65 123.60 3.95Q125.10 2.00 125.70 2.00Q125.95 2.00 125.95 2.40Q125.95 3.50 124.35 6.70Q116.50 20.90 113.45 26.35Q107.50 37 106.30 39L106.30 39.20Q106.30 39.35 106.40 39.35Q106.50 39.35 106.70 39.15L109.05 36.60Q111.45 34.05 113.40 32.10Q115.35 30.15 117.75 28.27Q120.15 26.40 121.30 26.40Q122.10 26.40 122.10 27.60Q122.10 28.30 121.60 29.75Q121.10 31.20 120.60 31.20Q120.40 31.20 120.25 30.70Q120.00 29.45 118.80 29.45Q117.10 29.45 115.65 32.67Q114.20 35.90 113.60 38.92Q113.00 41.95 113.00 43Q113.00 44.10 113.55 44.10Q114.00 44.10 114.73 43.52Q115.45 42.95 116.43 41.95Q117.40 40.95 117.60 40.75Z"/></g></g></svg>